<svg width="74" height="45" viewBox="0 0 74 45" fill="none" xmlns="http://www.w3.org/2000/svg">
<path fill-rule="evenodd" clip-rule="evenodd" d="M62.8308 0.0701294C65.749 0.0701294 68.5477 1.22939 70.6112 3.29288C72.6747 5.35638 73.834 8.15508 73.834 11.0733V33.0796C73.834 35.9979 72.6747 38.7966 70.6112 40.8601C68.5477 42.9236 65.749 44.0828 62.8308 44.0828H11.4827C8.56444 44.0828 5.76574 42.9236 3.70225 40.8601C1.63875 38.7966 0.479492 35.9979 0.479492 33.0796V11.0733C0.479492 8.15508 1.63875 5.35638 3.70225 3.29288C5.76574 1.22939 8.56444 0.0701294 11.4827 0.0701294H62.8308ZM62.8308 7.40558H11.4827C10.5843 7.4057 9.71725 7.73551 9.04593 8.33247C8.37461 8.92942 7.94572 9.752 7.84061 10.6442L7.81494 11.0733V33.0796C7.81506 33.978 8.14487 34.8451 8.74183 35.5164C9.33879 36.1877 10.1614 36.6166 11.0535 36.7217L11.4827 36.7474V29.4119C11.4828 28.5136 11.8126 27.6465 12.4096 26.9752C13.0065 26.3039 13.8291 25.875 14.7213 25.7699L15.1504 25.7442H59.1631C60.0614 25.7443 60.9285 26.0741 61.5998 26.6711C62.2711 27.268 62.7 28.0906 62.8051 28.9828L62.8308 29.4119V36.7474C63.7292 36.7472 64.5962 36.4174 65.2675 35.8205C65.9389 35.2235 66.3677 34.4009 66.4729 33.5088L66.4985 33.0796V11.0733C66.4984 10.175 66.1686 9.30789 65.5716 8.63657C64.9747 7.96524 64.1521 7.53636 63.2599 7.43125L62.8308 7.40558ZM55.4954 33.0796H18.8181V36.7474H55.4954V33.0796ZM55.4954 11.0733C56.4681 11.0733 57.401 11.4597 58.0888 12.1476C58.7767 12.8354 59.1631 13.7683 59.1631 14.741C59.1631 15.7138 58.7767 16.6467 58.0888 17.3345C57.401 18.0223 56.4681 18.4087 55.4954 18.4087C54.5226 18.4087 53.5897 18.0223 52.9019 17.3345C52.214 16.6467 51.8276 15.7138 51.8276 14.741C51.8276 13.7683 52.214 12.8354 52.9019 12.1476C53.5897 11.4597 54.5226 11.0733 55.4954 11.0733Z" fill="#7E7E7E"/>
</svg>
