<svg width="56" height="74" viewBox="0 0 56 74" fill="none" xmlns="http://www.w3.org/2000/svg">
<path d="M11.5201 0.117798C10.8599 4.40903 11.9236 8.04008 14.7844 11.0109C16.6182 12.8448 17.2051 15.3022 16.5082 18.4564H20.1393C20.5794 16.4392 20.6527 14.7887 20.286 13.1382C19.9559 11.5978 18.8189 9.76391 16.8016 7.56328C15.1512 5.50935 14.5643 3.05198 15.1512 0.117798H11.5201ZM20.6527 0.117798C19.9559 4.40903 21.0562 8.04008 23.917 11.0109C25.7509 12.8448 26.301 15.3022 25.6408 18.4564H29.2352C29.6387 16.4392 29.7487 14.7887 29.4186 13.1382C29.0518 11.5978 27.9148 9.76391 25.9709 7.56328C24.2471 5.50935 23.697 3.05198 24.2471 0.117798H20.6527ZM29.9321 0.117798C29.2352 4.40903 30.3355 8.04008 33.1964 11.0109C35.0302 12.8448 35.5437 15.3022 34.7368 18.4564H38.5146C38.9914 16.4392 39.028 14.7887 38.6979 13.1382C38.3679 11.5978 37.1942 9.76391 35.2503 7.56328C33.5265 5.50935 32.9763 3.05198 33.5265 0.117798H29.9321ZM0.296875 22.1241C0.296875 27.3323 1.72729 32.027 4.47808 36.2082C7.1596 40.3283 10.983 43.5782 15.4813 45.5609L0.88371 67.7506C0.516938 68.1908 0.296875 68.8876 0.296875 69.8046C0.296875 71.3083 0.883711 72.3353 1.91067 72.8854C2.3508 73.2522 3.04767 73.4723 3.9646 73.4723C5.46837 73.4723 6.49533 72.8854 7.04549 71.8585L10.6765 66.0268H34.0399C34.8102 68.1541 36.2039 69.9879 38.0011 71.345C39.8349 72.7387 41.9622 73.4723 44.3096 73.4723C47.3538 73.4723 49.9212 72.3353 52.1218 70.1347C54.2858 67.9707 55.3127 65.4033 55.3127 62.4691C55.3127 59.4249 54.2858 56.8575 52.1218 54.6935C49.9212 52.4929 47.3538 51.4659 44.3096 51.4659C41.9622 51.4659 39.8349 52.0894 38.0011 53.4832C36.1672 54.8402 34.8468 56.6374 34.0399 58.8014H15.4813L22.7067 47.6148C23.2935 47.7982 24.3571 47.7982 25.9709 47.7982C27.5847 47.7982 28.6484 47.7982 29.2352 47.6148L32.8663 53.2998C34.37 51.3192 36.3873 49.7788 38.6979 48.8252L36.644 45.5609C40.7519 43.727 44.3096 40.4628 47.2071 35.9515C50.1412 31.2935 51.645 26.7822 51.645 22.1241H0.296875ZM44.3096 58.8014C45.4099 58.8014 46.2535 59.1315 46.9503 59.8283C47.6472 60.5252 47.9773 61.4421 47.9773 62.4691C47.9773 63.4594 47.6472 64.303 46.9503 65.0732C46.2901 65.8067 45.3365 66.1368 44.3096 66.1368C43.356 66.1368 42.4757 65.8067 41.7055 65.0732C41.3656 64.7305 41.0966 64.324 40.9141 63.8772C40.7316 63.4303 40.639 62.9518 40.6418 62.4691C40.6418 61.3688 40.9719 60.5252 41.7055 59.8283C42.4757 59.1315 43.3193 58.8014 44.3096 58.8014Z" fill="#7E7E7E"/>
</svg>
