<svg width="94" height="89" viewBox="0 0 94 89" fill="none" xmlns="http://www.w3.org/2000/svg">
<path d="M41.5549 24.9549C41.5549 20.5776 39.816 16.3795 36.7207 13.2843C33.6255 10.189 29.4274 8.45013 25.0501 8.45013C20.6728 8.45013 16.4747 10.189 13.3795 13.2843C10.2842 16.3795 8.54535 20.5776 8.54535 24.9549C8.54535 29.3322 10.2842 33.5303 13.3795 36.6255C16.4747 39.7208 20.6728 41.4596 25.0501 41.4596C29.4274 41.4596 33.6255 39.7208 36.7207 36.6255C39.816 33.5303 41.5549 29.3322 41.5549 24.9549ZM49.1883 30.4565C46.6954 41.4768 36.8269 49.712 25.0501 49.712C11.3821 49.712 0.292969 38.6229 0.292969 24.9549C0.292969 11.2869 11.3821 0.197754 25.0501 0.197754C36.8269 0.197754 46.6954 8.43294 49.1883 19.4533H61.5325C63.0454 17.7684 65.2461 16.7025 67.6874 16.7025H85.5676C90.1236 16.7025 93.8199 20.3989 93.8199 24.9549C93.8199 29.5109 90.1236 33.2073 85.5676 33.2073H67.6874C65.2461 33.2073 63.0454 32.1413 61.5325 30.4565H49.1883ZM25.0501 13.9517C27.9683 13.9517 30.767 15.111 32.8305 17.1745C34.894 19.238 36.0533 22.0367 36.0533 24.9549C36.0533 27.8731 34.894 30.6718 32.8305 32.7353C30.767 34.7988 27.9683 35.9581 25.0501 35.9581C22.1319 35.9581 19.3332 34.7988 17.2697 32.7353C15.2062 30.6718 14.0469 27.8731 14.0469 24.9549C14.0469 22.0367 15.2062 19.238 17.2697 17.1745C19.3332 15.111 22.1319 13.9517 25.0501 13.9517ZM69.0628 41.4596C71.3494 41.4596 73.189 43.2992 73.189 45.5858V46.9612H89.6938C91.9804 46.9612 93.8199 48.8008 93.8199 51.0874C93.8199 53.374 91.9804 55.2136 89.6938 55.2136H48.4319C46.1453 55.2136 44.3057 53.374 44.3057 51.0874C44.3057 48.8008 46.1453 46.9612 48.4319 46.9612H64.9366V45.5858C64.9366 43.2992 66.7762 41.4596 69.0628 41.4596ZM49.8073 79.9708V60.7152H88.3184V79.9708C88.3184 84.5268 84.622 88.2231 80.066 88.2231H58.0596C53.5036 88.2231 49.8073 84.5268 49.8073 79.9708ZM8.54535 55.2136H30.5517C35.1077 55.2136 38.8041 58.91 38.8041 63.466C38.8041 68.022 35.1077 71.7184 30.5517 71.7184H27.8009C27.8009 74.7614 25.3424 77.22 22.2993 77.22H11.2961C8.25308 77.22 5.79456 74.7614 5.79456 71.7184V57.9644C5.79456 56.4515 7.03241 55.2136 8.54535 55.2136ZM30.5517 66.2168C32.0646 66.2168 33.3025 64.9789 33.3025 63.466C33.3025 61.9531 32.0646 60.7152 30.5517 60.7152H27.8009V66.2168H30.5517ZM4.41916 79.9708H34.6779C36.9645 79.9708 38.8041 81.8103 38.8041 84.0969C38.8041 86.3835 36.9645 88.2231 34.6779 88.2231H4.41916C2.13256 88.2231 0.292969 86.3835 0.292969 84.0969C0.292969 81.8103 2.13256 79.9708 4.41916 79.9708Z" fill="#7E7E7E"/>
</svg>
