<svg width="61" height="74" viewBox="0 0 61 74" fill="none" xmlns="http://www.w3.org/2000/svg">
<path d="M23.7266 43.0222V20.0183H31.2032C32.2328 20.0025 33.2552 20.1916 34.211 20.5746C35.1668 20.9577 36.0369 21.527 36.7706 22.2495C37.5043 22.972 38.0869 23.8332 38.4846 24.783C38.8823 25.7328 39.0871 26.7522 39.0871 27.7819C39.0871 28.8116 38.8823 29.8311 38.4846 30.7809C38.0869 31.7306 37.5043 32.5919 36.7706 33.3143C36.0369 34.0368 35.1668 34.6062 34.211 34.9892C33.2552 35.3723 32.2328 35.5614 31.2032 35.5456H23.7266" stroke="#7E7E7E" stroke-width="1.04167" stroke-linecap="round" stroke-linejoin="round"/>
<path d="M31.1519 53.0297C43.0312 53.0297 52.6613 43.3997 52.6613 31.5204C52.6613 19.6411 43.0312 10.011 31.1519 10.011C19.2727 10.011 9.64258 19.6411 9.64258 31.5204C9.64258 43.3997 19.2727 53.0297 31.1519 53.0297Z" stroke="#7E7E7E" stroke-width="1.04167" stroke-linecap="round" stroke-linejoin="round"/>
<path d="M31.4672 72.2744C31.1518 72.5107 30.7684 72.6384 30.3743 72.6384C29.9802 72.6384 29.5967 72.5107 29.2813 72.2744C20.2147 65.5184 0.847239 49.4703 0.847239 31.2307C0.765304 27.3012 1.46849 23.3949 2.9156 19.7407C4.36271 16.0865 6.52463 12.7578 9.27467 9.94987C12.0247 7.14189 15.3075 4.91105 18.9308 3.38808C22.5541 1.8651 26.4448 1.08063 30.3752 1.08063C34.3055 1.08063 38.1963 1.8651 41.8195 3.38808C45.4428 4.91105 48.7256 7.14189 51.4757 9.94987C54.2257 12.7578 56.3876 16.0865 57.8347 19.7407C59.2818 23.3949 59.985 27.3012 59.9031 31.2307C59.9031 49.4703 40.5339 65.5184 31.4672 72.2744Z" stroke="#7E7E7E" stroke-width="1.04167" stroke-linecap="round" stroke-linejoin="round"/>
</svg>
