<svg width="67" height="67" viewBox="0 0 67 67" fill="none" xmlns="http://www.w3.org/2000/svg">
<path d="M18.1653 38.97C18.1616 35.2987 19.4929 31.7513 21.9111 28.9889C24.3294 26.2266 27.6696 24.4378 31.3091 23.956C34.9487 23.4742 38.6392 24.3322 41.693 26.3701C44.7467 28.4081 46.9552 31.4869 47.9069 35.0327L47.7253 35.2271C46.8781 36.1367 46.0015 37.0793 44.3877 37.7743C42.4365 38.6179 39.218 39.1185 33.6651 37.7303C27.4667 36.1807 23.291 37.1031 20.3696 38.9131C19.6083 39.388 18.8974 39.9391 18.2478 40.5581C18.1916 40.0306 18.1641 39.5005 18.1653 38.97ZM0.285156 11.0036C0.285156 8.08538 1.44442 5.28668 3.50791 3.22318C5.57141 1.15969 8.37011 0.000427246 11.2883 0.000427246H55.301C58.2192 0.000427246 61.0179 1.15969 63.0814 3.22318C65.1449 5.28668 66.3042 8.08538 66.3042 11.0036V55.0163C66.3042 57.9345 65.1449 60.7332 63.0814 62.7967C61.0179 64.8602 58.2192 66.0195 55.301 66.0195H11.2883C8.37011 66.0195 5.57141 64.8602 3.50791 62.7967C1.44442 60.7332 0.285156 57.9345 0.285156 55.0163V11.0036ZM18.6238 15.1298C19.5965 15.1298 20.5294 14.7434 21.2172 14.0555C21.9051 13.3677 22.2915 12.4348 22.2915 11.4621C22.2915 10.4893 21.9051 9.55642 21.2172 8.86859C20.5294 8.18076 19.5965 7.79434 18.6238 7.79434C17.651 7.79434 16.7181 8.18076 16.0303 8.86859C15.3425 9.55642 14.9561 10.4893 14.9561 11.4621C14.9561 12.4348 15.3425 13.3677 16.0303 14.0555C16.7181 14.7434 17.651 15.1298 18.6238 15.1298ZM33.2947 11.4621C33.2947 12.7274 34.3216 13.7544 35.587 13.7544H49.341C49.9489 13.7544 50.532 13.5129 50.9619 13.083C51.3918 12.6531 51.6333 12.07 51.6333 11.4621C51.6333 10.8541 51.3918 10.271 50.9619 9.84114C50.532 9.41125 49.9489 9.16974 49.341 9.16974H35.587C34.3216 9.16974 33.2947 10.1967 33.2947 11.4621ZM33.2947 19.256C22.407 19.256 13.5807 28.0824 13.5807 38.97C13.5807 49.8576 22.407 58.684 33.2947 58.684C44.1823 58.684 53.0087 49.8576 53.0087 38.97C53.0087 28.0824 44.1823 19.256 33.2947 19.256Z" fill="#7E7E7E"/>
</svg>
