<svg width="111" height="78" viewBox="0 0 111 78" fill="none" xmlns="http://www.w3.org/2000/svg">
<path d="M107.77 66.5845H105.019C100.542 66.5845 97.1452 65.1369 95.3761 63.5071C93.846 62.0956 91.9961 61.0829 89.9141 61.0829H87.1117C85.0297 61.0829 83.1798 62.0956 81.6497 63.5071C79.884 65.1369 76.4868 66.5845 72.0099 66.5845C67.533 66.5845 64.1357 65.1369 62.3666 63.5071C60.8365 62.0956 58.9866 61.0829 56.9046 61.0829H54.1022C52.0202 61.0829 50.1703 62.0956 48.6402 63.5071C46.8745 65.1369 43.4773 66.5845 39.0004 66.5845C34.5234 66.5845 31.1262 65.1369 29.3571 63.5071C27.827 62.0956 25.9771 61.0829 23.8951 61.0829H21.0927C19.0107 61.0829 17.1608 62.0956 15.6307 63.5071C13.865 65.1369 10.4678 66.5845 5.99084 66.5845H3.24005C1.72024 66.5845 0.489258 67.8155 0.489258 69.3353V74.8369C0.489258 76.3567 1.72024 77.5877 3.24005 77.5877H5.99084C12.6306 77.5877 18.4932 75.4919 22.4956 72.1136C26.498 75.4937 32.3606 77.5877 39.0004 77.5877C45.6401 77.5877 51.5027 75.4919 55.5051 72.1136C59.5075 75.4937 65.3701 77.5877 72.0099 77.5877C78.6496 77.5877 84.5122 75.4919 88.5146 72.1136C92.517 75.4937 98.3797 77.5877 105.019 77.5877H107.77C109.29 77.5877 110.521 76.3567 110.521 74.8369V69.3353C110.521 67.8155 109.29 66.5845 107.77 66.5845ZM39.0004 61.0829V44.5782H72.0099V61.0829C75.2971 61.0829 77.3155 60.0239 77.9224 59.4634C79.4989 58.0089 81.2233 56.998 83.013 56.3567V17.0703C83.013 14.0375 85.4819 11.5687 88.5146 11.5687C91.5474 11.5687 94.0162 14.0375 94.0162 17.0703V19.821C94.0162 21.3409 95.2472 22.5718 96.767 22.5718H102.269C103.788 22.5718 105.019 21.3409 105.019 19.821V17.0703C105.019 7.96856 97.6163 0.565491 88.5146 0.565491C79.4129 0.565491 72.0099 7.96856 72.0099 17.0703V33.575H39.0004V17.0703C39.0004 14.0375 41.4692 11.5687 44.5019 11.5687C47.5347 11.5687 50.0035 14.0375 50.0035 17.0703V19.821C50.0035 21.3409 51.2345 22.5718 52.7543 22.5718H58.2559C59.7757 22.5718 61.0067 21.3409 61.0067 19.821V17.0703C61.0067 7.96856 53.6036 0.565491 44.5019 0.565491C35.4003 0.565491 27.9972 7.96856 27.9972 17.0703V56.355C29.7869 56.9963 31.5113 58.0089 33.0879 59.4617C33.6948 60.0239 35.7132 61.0829 39.0004 61.0829Z" fill="#7E7E7E"/>
</svg>
