<svg width="77" height="57" viewBox="0 0 77 57" fill="none" xmlns="http://www.w3.org/2000/svg">
<path d="M1.81939 21.3509C3.68993 23.2214 6.66078 23.4048 8.67803 21.7176C25.8063 7.63357 50.6735 7.63356 67.8384 21.6809C69.8924 23.3681 72.8999 23.2214 74.7704 21.3509C76.9344 19.1869 76.7877 15.5925 74.4037 13.6486C53.4609 -3.47964 23.1655 -3.47964 2.18616 13.6486C-0.19786 15.5559 -0.381247 19.1502 1.81939 21.3509ZM30.2809 49.8124L35.6725 55.204C37.1029 56.6344 39.4136 56.6344 40.844 55.204L46.2355 49.8124C47.9594 48.0886 47.5926 45.1177 45.392 43.9807C43.1734 42.8416 40.7154 42.2474 38.2216 42.2474C35.7277 42.2474 33.2697 42.8416 31.0512 43.9807C28.9605 45.1177 28.5571 48.0886 30.2809 49.8124ZM16.6003 36.1318C18.3975 37.929 21.2217 38.1124 23.3123 36.6086C27.688 33.5126 32.9163 31.8501 38.2766 31.8501C43.6368 31.8501 48.8651 33.5126 53.2409 36.6086C55.3315 38.0757 58.1556 37.929 59.9528 36.1318L59.9895 36.0951C62.1901 33.8945 62.0434 30.1534 59.5127 28.3562C46.8957 19.2236 29.6941 19.2236 17.0404 28.3562C14.5097 30.1901 14.363 33.8945 16.6003 36.1318Z" fill="#7E7E7E"/>
</svg>
