<svg width="35" height="25" viewBox="0 0 35 25" fill="none" xmlns="http://www.w3.org/2000/svg">
<rect x="0.836914" y="0.360107" width="34" height="24" rx="5" fill="white"/>
<rect x="1.08691" y="0.610107" width="33.5" height="23.5" rx="4.75" stroke="black" stroke-opacity="0.114" stroke-width="0.5"/>
<path fill-rule="evenodd" clip-rule="evenodd" d="M16.8948 15.8881V12.9535H18.4094C19.0301 12.9535 19.5539 12.7455 19.981 12.3353L20.0835 12.2314C20.8636 11.3822 20.8123 10.0593 19.981 9.2736C19.5653 8.85766 18.9959 8.63236 18.4094 8.64392H15.978V15.8881H16.8948ZM16.8948 12.0638V9.53349H18.4324C18.7627 9.53349 19.076 9.66058 19.3095 9.89166C19.8049 10.3769 19.8163 11.1857 19.3379 11.6883C19.1044 11.9367 18.7741 12.0753 18.4324 12.0638H16.8948ZM24.3597 11.3186C23.9669 10.9546 23.4316 10.7698 22.754 10.7698C21.8828 10.7698 21.228 11.0933 20.7952 11.7345L21.6038 12.2487C21.8999 11.8096 22.3042 11.5901 22.8167 11.5901C23.1412 11.5901 23.4544 11.7114 23.6992 11.9309C23.9384 12.1389 24.075 12.4393 24.075 12.757V12.9708C23.722 12.7744 23.2779 12.6704 22.7312 12.6704C22.0935 12.6704 21.581 12.8206 21.1995 13.1267C20.818 13.4329 20.6244 13.8373 20.6244 14.3514C20.613 14.8194 20.8123 15.2642 21.1654 15.5646C21.5241 15.8881 21.9796 16.0498 22.5149 16.0498C23.1469 16.0498 23.648 15.7668 24.0295 15.2006H24.0693V15.8881H24.9462V12.8321C24.9462 12.1909 24.7526 11.6825 24.3597 11.3186ZM21.8716 14.9754C21.6837 14.8367 21.5698 14.6114 21.5698 14.3688C21.5698 14.0973 21.695 13.872 21.9399 13.6929C22.1905 13.5138 22.5037 13.4214 22.8739 13.4214C23.3865 13.4156 23.7851 13.5311 24.0699 13.7622C24.0699 14.155 23.9161 14.4959 23.6143 14.7847C23.3409 15.062 22.9707 15.218 22.5835 15.218C22.3272 15.2238 22.0766 15.1371 21.8716 14.9754ZM26.9165 18.066L29.9799 10.9315H28.9835L27.5656 14.4901H27.5486L26.0966 10.9315H25.1001L27.1101 15.5704L25.9713 18.066H26.9165Z" fill="#3C4043"/>
<path d="M13.7295 12.318C13.7295 12.0349 13.7068 11.7518 13.6612 11.4745H9.79492V13.0747H12.0099C11.9188 13.5889 11.6227 14.051 11.19 14.3399V15.3797H12.511C13.2854 14.6576 13.7295 13.5889 13.7295 12.318Z" fill="#4285F4"/>
<path d="M9.79509 16.3849C10.8997 16.3849 11.8336 16.0152 12.5112 15.3797L11.1901 14.3399C10.82 14.5941 10.3474 14.7385 9.79509 14.7385C8.7246 14.7385 7.81924 14.0048 7.49468 13.0228H6.13379V14.0973C6.82847 15.501 8.24629 16.3849 9.79509 16.3849Z" fill="#34A853"/>
<path d="M7.49489 13.0228C7.32404 12.5087 7.32404 11.9483 7.49489 11.4284V10.3597H6.13379C5.5472 11.5324 5.5472 12.9188 6.13379 14.0915L7.49489 13.0228Z" fill="#FBBC04"/>
<path d="M9.79509 9.71264C10.3816 9.70109 10.9453 9.92638 11.3667 10.3365L12.5396 9.14651C11.7937 8.44173 10.8143 8.05468 9.79509 8.06623C8.24629 8.06623 6.82847 8.95587 6.13379 10.3596L7.49468 11.4341C7.81924 10.4463 8.7246 9.71264 9.79509 9.71264Z" fill="#EA4335"/>
</svg>
