<svg width="35" height="25" viewBox="0 0 35 25" fill="none" xmlns="http://www.w3.org/2000/svg">
<rect x="0.836914" y="0.360107" width="34" height="24" rx="5" fill="white"/>
<rect x="1.08691" y="0.610107" width="33.5" height="23.5" rx="4.75" stroke="black" stroke-opacity="0.114" stroke-width="0.5"/>
<path fill-rule="evenodd" clip-rule="evenodd" d="M10.5513 11.9274C10.5513 15.7995 13.6188 18.9572 17.4167 18.9572C17.8828 18.9572 18.349 18.9152 18.8846 18.8669C19.4819 18.8131 20.1656 18.7515 21.032 18.7316C22.3466 18.7316 23.7708 19.2203 25.3411 20.6489C25.4872 20.7992 25.7063 20.6113 25.5602 20.4233C23.99 18.4309 22.5657 18.055 21.1415 17.7167C19.3887 17.3031 18.4757 16.3257 17.8549 15.198C17.7453 14.9724 17.6723 15.01 17.6723 15.3108C17.6358 15.7619 17.6723 16.1754 17.7454 16.5889H17.5262C15.043 16.5889 12.998 14.4837 12.998 11.9274C12.998 9.37118 15.043 7.26601 17.5262 7.26601C20.0095 7.26601 22.0545 9.37118 22.0545 11.9274C22.0545 12.0778 22.0545 12.2658 22.018 12.4537C21.6528 12.3786 21.032 12.3786 20.5572 12.4161C20.3747 12.4161 20.3747 12.4913 20.5207 12.5289C21.9815 12.8297 23.004 13.7695 23.2596 15.4987C23.2596 15.5739 23.2961 15.5739 23.3326 15.5363C23.9169 14.4837 24.2821 13.2432 24.2821 11.9274C24.2821 8.01786 21.2146 4.86011 17.4167 4.86011C13.6188 4.86011 10.5513 8.05545 10.5513 11.9274ZM22.3831 14.8221C22.6387 14.9348 22.7483 15.3108 22.7483 15.4987C22.7848 15.7995 22.7118 15.9498 22.6022 15.9498C22.4927 15.9498 22.3466 15.8371 22.2005 15.5739C22.0544 15.3108 21.9814 15.0476 22.0544 14.8972C22.164 14.8221 22.2736 14.7845 22.3831 14.8221ZM20.8859 15.9874C21.0319 15.9874 21.2145 16.0626 21.3971 16.213C21.6893 16.4761 21.7988 16.7769 21.6528 17.0024C21.5797 17.1152 21.3971 17.1904 21.2511 17.1904C21.0685 17.1904 20.8859 17.1152 20.7763 17.0024C20.4842 16.7393 20.4111 16.3633 20.5937 16.1378C20.6302 16.0626 20.7398 15.9874 20.8859 15.9874Z" fill="#F28A1A"/>
</svg>
