<svg width="35" height="25" viewBox="0 0 35 25" fill="none" xmlns="http://www.w3.org/2000/svg">
<rect x="0.836914" y="0.360107" width="34" height="24" rx="5" fill="white"/>
<rect x="1.08691" y="0.610107" width="33.5" height="23.5" rx="4.75" stroke="black" stroke-opacity="0.114" stroke-width="0.5"/>
<path fill-rule="evenodd" clip-rule="evenodd" d="M18.0159 17.1895C16.8318 18.1876 15.2959 18.7901 13.6176 18.7901C9.87273 18.7901 6.83691 15.7904 6.83691 12.0901C6.83691 8.38977 9.87273 5.39008 13.6176 5.39008C15.2959 5.39008 16.8318 5.99257 18.0159 6.99062C19.1999 5.99257 20.7359 5.39008 22.4142 5.39008C26.159 5.39008 29.1949 8.38977 29.1949 12.0901C29.1949 15.7904 26.159 18.7901 22.4142 18.7901C20.7359 18.7901 19.1999 18.1876 18.0159 17.1895Z" fill="#ED0006"/>
<path fill-rule="evenodd" clip-rule="evenodd" d="M18.0161 17.1895C19.4741 15.9606 20.3985 14.132 20.3985 12.0901C20.3985 10.0481 19.4741 8.21952 18.0161 6.99061C19.2002 5.99257 20.7361 5.39008 22.4144 5.39008C26.1593 5.39008 29.1951 8.38977 29.1951 12.0901C29.1951 15.7904 26.1593 18.7901 22.4144 18.7901C20.7361 18.7901 19.2002 18.1876 18.0161 17.1895Z" fill="#F9A000"/>
<path fill-rule="evenodd" clip-rule="evenodd" d="M18.0157 17.1895C19.4736 15.9606 20.3981 14.132 20.3981 12.0901C20.3981 10.0482 19.4736 8.21956 18.0157 6.99066C16.5578 8.21956 15.6333 10.0482 15.6333 12.0901C15.6333 14.132 16.5578 15.9606 18.0157 17.1895Z" fill="#FF5E00"/>
</svg>
