<svg width="35" height="25" viewBox="0 0 35 25" fill="none" xmlns="http://www.w3.org/2000/svg">
<rect x="0.836914" y="0.360107" width="34" height="24" rx="5" fill="white"/>
<rect x="1.08691" y="0.610107" width="33.5" height="23.5" rx="4.75" stroke="black" stroke-opacity="0.114" stroke-width="0.5"/>
<path fill-rule="evenodd" clip-rule="evenodd" d="M11.587 16.2183H9.52723L7.98267 10.1525C7.90936 9.87343 7.7537 9.62675 7.52473 9.51049C6.95331 9.21831 6.32363 8.98579 5.63672 8.86851V8.63498H8.9548C9.41274 8.63498 9.7562 8.98579 9.81344 9.39321L10.6148 13.7687L12.6736 8.63498H14.6761L11.587 16.2183ZM15.8209 16.2183H13.8757L15.4775 8.63498H17.4227L15.8209 16.2183ZM19.9394 10.7358C19.9967 10.3274 20.3401 10.0938 20.7408 10.0938C21.3705 10.0352 22.0564 10.1525 22.6288 10.4436L22.9723 8.81089C22.3999 8.57736 21.7702 8.46008 21.1988 8.46008C19.3108 8.46008 17.9369 9.51049 17.9369 10.9683C17.9369 12.0774 18.9101 12.6597 19.597 13.0105C20.3401 13.3603 20.6263 13.5938 20.5691 13.9436C20.5691 14.4683 19.9967 14.7019 19.4252 14.7019C18.7383 14.7019 18.0514 14.527 17.4227 14.2348L17.0793 15.8685C17.7662 16.1597 18.5094 16.277 19.1963 16.277C21.3133 16.3346 22.6288 15.2852 22.6288 13.7101C22.6288 11.7266 19.9394 11.6103 19.9394 10.7358ZM29.4367 16.2183L27.8922 8.63498H26.2331C25.8897 8.63498 25.5462 8.86851 25.4317 9.21831L22.5716 16.2183H24.5741L24.9738 15.1103H27.4342L27.6632 16.2183H29.4367ZM26.5193 10.6772L27.0908 13.5352H25.489L26.5193 10.6772Z" fill="#172B85"/>
</svg>
