<svg width="80" height="80" viewBox="0 0 80 80" fill="none" xmlns="http://www.w3.org/2000/svg">
<path d="M0.333984 79.5393V18.0919H17.8904V0.535522H61.7814V35.6483H79.3378V79.5393H44.225V61.9829H35.4468V79.5393H0.333984ZM9.11219 70.7611H17.8904V61.9829H9.11219V70.7611ZM9.11219 53.2047H17.8904V44.4265H9.11219V53.2047ZM9.11219 35.6483H17.8904V26.8701H9.11219V35.6483ZM26.6686 53.2047H35.4468V44.4265H26.6686V53.2047ZM26.6686 35.6483H35.4468V26.8701H26.6686V35.6483ZM26.6686 18.0919H35.4468V9.31372H26.6686V18.0919ZM44.225 53.2047H53.0032V44.4265H44.225V53.2047ZM44.225 35.6483H53.0032V26.8701H44.225V35.6483ZM44.225 18.0919H53.0032V9.31372H44.225V18.0919ZM61.7814 70.7611H70.5596V61.9829H61.7814V70.7611ZM61.7814 53.2047H70.5596V44.4265H61.7814V53.2047Z" fill="#7E7E7E"/>
</svg>
