<svg width="93" height="93" viewBox="0 0 93 93" fill="none" xmlns="http://www.w3.org/2000/svg">
<path d="M2.57227 2.53577H90.3543" stroke="#7E7E7E" stroke-width="4.16667" stroke-linecap="round" stroke-linejoin="round"/>
<path d="M77.1861 2.53564H15.7387C13.3147 2.53564 11.3496 4.50071 11.3496 6.92475V85.9286C11.3496 88.3526 13.3147 90.3177 15.7387 90.3177H77.1861C79.6102 90.3177 81.5752 88.3526 81.5752 85.9286V6.92475C81.5752 4.50071 79.6102 2.53564 77.1861 2.53564Z" stroke="#7E7E7E" stroke-width="4.16667" stroke-linejoin="round"/>
<path d="M37.6846 63.9832H55.241V90.3178H37.6846V63.9832Z" stroke="#7E7E7E" stroke-width="4.16667" stroke-linecap="round" stroke-linejoin="round"/>
<path d="M26.7119 20.0917H31.101M26.7119 33.259H31.101M44.2683 20.0917H48.6574M44.2683 33.259H48.6574M61.8247 20.0917H66.2138M61.8247 33.259H66.2138" stroke="#7E7E7E" stroke-width="4.16667" stroke-linecap="round"/>
<path d="M2.57227 90.3178H90.3543M55.2415 63.9832H59.6306C60.842 63.9832 61.8471 62.9913 61.6145 61.8018C60.4031 55.5693 54.0806 50.8159 46.4633 50.8159C38.8482 50.8159 32.5235 55.5671 31.3121 61.8018C31.0795 62.9913 32.0846 63.9832 33.296 63.9832H37.6851" stroke="#7E7E7E" stroke-width="4.16667" stroke-linecap="round" stroke-linejoin="round"/>
</svg>
