<svg width="107" height="23" viewBox="0 0 107 23" fill="none" xmlns="http://www.w3.org/2000/svg">
<path d="M3.544 12.104H9.4L6.52 4.784L3.544 12.104ZM7.84 0.248H8.344L14.44 15.776L15.424 16.52V17H10.168V16.52L10.864 15.776L9.592 12.584H3.352L2.056 15.776L2.704 16.52V17H0.52V16.52L1.552 15.776L7.84 0.248ZM22.3128 5.984C20.5848 5.984 19.3848 7.568 19.3848 9.872V15.8L20.1048 16.52V17H15.3288V16.52L16.0488 15.8V6.944L15.3288 6.224V5.768L18.9288 5.048H19.3848V7.496C20.1528 5.816 21.7848 4.808 23.9208 4.808C26.2248 4.808 27.7608 5.984 27.7608 8.432V15.8L28.4808 16.52V17H23.7048V16.52L24.4248 15.8V8.912C24.4248 7.04 23.7288 5.984 22.3128 5.984ZM34.4772 17C32.7972 20.384 32.4612 22.016 29.8692 22.016C28.1652 22.016 27.0372 21.296 26.4612 20.384C25.0932 18.176 27.7572 16.448 29.0532 19.352C29.6292 20.648 30.7332 21.584 31.5492 21.008C32.1492 20.624 32.9172 19.16 33.9972 17H33.9732L28.7652 6.248L27.8052 5.528V5.048H33.1812V5.528L32.4852 6.248L35.8692 13.232L39.3252 6.248L38.6772 5.528V5.048H40.8612V5.528L39.8292 6.248L34.4772 17Z" fill="#FF3E30"/>
<path d="M46.1556 17H45.6516L41.1876 6.248L40.2036 5.528V5.048H45.5076V5.528L44.8116 6.248L47.4996 12.752L48.9396 9.392L47.6436 6.248L46.6596 5.528V5.048H51.9636V5.528L51.2676 6.248L53.9556 12.752L56.7636 6.248L56.1156 5.528V5.048H58.2996V5.528L57.2676 6.248L52.6116 17H52.1076L49.2036 9.992L46.1556 17ZM58.2411 17V16.52L58.9611 15.8V2.168L58.2411 1.448V0.967999L61.8411 0.248H62.2971V7.496C63.0651 5.816 64.6971 4.808 66.8331 4.808C69.1371 4.808 70.6731 5.984 70.6731 8.432V15.8L71.3931 16.52V17H66.6171V16.52L67.3371 15.8V8.912C67.3371 7.04 66.6411 5.984 65.2251 5.984C63.4971 5.984 62.2971 7.568 62.2971 9.872V15.8L63.0171 16.52V17H58.2411ZM75.1921 10.76H80.1601C80.1601 7.256 79.1041 4.88 76.9441 5.384C75.0481 5.84 74.4961 8.072 75.1921 10.76ZM77.8081 4.808C81.1921 4.808 83.3041 7.256 83.4241 10.76V11.24H75.3361C75.4321 11.576 75.5521 11.912 75.6721 12.248C76.7761 14.864 78.2401 15.848 79.8961 15.728C81.7201 15.584 82.4881 14.216 83.0401 13.256H83.5201C82.3681 15.968 80.4241 17.24 77.9281 17.24C74.4481 17.24 71.9521 14.744 71.9521 11.048C71.9521 7.376 74.3761 4.808 77.8081 4.808ZM84.1647 17V16.52L84.8847 15.8V6.944L84.1647 6.224V5.768L87.7647 5.048H88.2207V7.184C88.8447 5.696 89.9967 4.808 91.4607 4.808C93.1407 4.808 94.6527 5.984 94.9167 7.424C95.2767 9.536 92.6607 9.8 91.8687 7.592C91.6767 7.04 91.1247 5.984 90.2127 5.984C89.0847 5.984 88.2207 7.568 88.2207 9.872V15.8L88.9407 16.52V17H84.1647ZM98.3952 10.76H103.363C103.363 7.256 102.307 4.88 100.147 5.384C98.2512 5.84 97.6992 8.072 98.3952 10.76ZM101.011 4.808C104.395 4.808 106.507 7.256 106.627 10.76V11.24H98.5392C98.6352 11.576 98.7552 11.912 98.8752 12.248C99.9792 14.864 101.443 15.848 103.099 15.728C104.923 15.584 105.691 14.216 106.243 13.256H106.723C105.571 15.968 103.627 17.24 101.131 17.24C97.6512 17.24 95.1552 14.744 95.1552 11.048C95.1552 7.376 97.5792 4.808 101.011 4.808Z" fill="#176BEF"/>
</svg>
