<?xml version="1.0" standalone="no"?>
<!DOCTYPE svg PUBLIC "-//W3C//DTD SVG 20010904//EN"
 "http://www.w3.org/TR/2001/REC-SVG-20010904/DTD/svg10.dtd">
<svg version="1.0" xmlns="http://www.w3.org/2000/svg"
 width="419.000000pt" height="234.000000pt" viewBox="0 0 419.000000 234.000000"
 preserveAspectRatio="xMidYMid meet">

<g transform="translate(0.000000,234.000000) scale(0.100000,-0.100000)"
fill="#000000" stroke="none">
<path d="M2270 2334 c0 -2 124 -167 276 -365 202 -264 273 -364 263 -370 -7
-4 -35 -11 -62 -14 -28 -4 -51 -13 -54 -22 -7 -18 29 -1163 36 -1163 4 0 71
27 150 60 79 33 146 59 148 56 2 -2 -71 -49 -162 -105 l-165 -102 -503 72
-502 73 -243 -57 -243 -57 -40 22 -40 23 6 85 c3 47 15 307 26 578 l20 493
-63 67 c-35 38 -166 208 -291 380 -126 172 -232 312 -237 312 -8 0 -560 -732
-569 -754 -2 -6 126 111 285 259 159 148 299 277 310 288 l22 19 201 -226 201
-226 35 -589 c19 -325 35 -608 35 -629 l0 -38 -72 7 c-40 4 -262 17 -493 29
-231 12 -422 23 -423 25 -5 5 -3 674 3 930 2 116 2 203 0 195 -2 -8 -23 -283
-45 -610 l-42 -596 68 -123 c37 -67 72 -124 78 -126 6 -2 252 -34 547 -70
l535 -65 275 15 c151 8 346 19 434 25 88 5 421 24 740 41 l580 31 228 63 228
64 159 103 c87 56 156 105 154 107 -3 3 -123 17 -267 32 l-262 27 323 1 322 1
0 56 0 57 -105 -5 -105 -6 -2 389 c-2 214 0 389 5 389 4 0 7 11 7 24 0 22 -5
24 -67 30 -38 3 -126 9 -197 12 l-129 7 6 -39 c4 -22 7 -209 7 -417 0 -355 1
-378 18 -375 16 3 17 28 13 389 l-4 385 37 -4 36 -4 0 -358 0 -358 94 -33 c52
-19 93 -35 91 -37 -7 -8 -935 -55 -942 -48 -7 7 24 986 30 993 5 5 222 -14
265 -23 l22 -4 1 -353 c1 -193 4 -341 6 -327 2 14 12 188 21 386 l18 362 217
362 c120 200 216 364 215 365 -2 2 -217 -21 -478 -50 l-475 -53 -190 43 c-294
67 -325 73 -325 69z m1608 -940 l22 -6 0 -364 c0 -200 -3 -364 -7 -364 -5 0
-43 7 -86 15 -43 8 -81 15 -83 15 -6 0 -5 359 3 543 l6 167 61 0 c34 0 71 -3
84 -6z"/>
<path d="M3765 1039 c-8 -24 -8 -24 25 -34 l25 -7 -22 16 c-13 10 -20 23 -17
31 4 8 4 15 1 15 -3 0 -9 -9 -12 -21z"/>
<path d="M3767 2298 c-8 -13 -106 -182 -216 -376 l-202 -353 21 -29 c12 -17
25 -30 29 -30 4 0 90 142 191 315 100 173 186 315 189 315 3 0 84 -124 180
-274 l173 -275 25 16 c14 9 23 23 20 32 -2 9 -92 166 -200 349 -189 321 -196
332 -210 310z"/>
<path d="M1945 1903 c-141 -213 -255 -381 -252 -373 2 8 102 176 220 374 l216
359 -42 -5 c-23 -3 -238 -27 -477 -54 l-435 -48 -259 57 c-142 32 -259 57
-261 55 -1 -2 135 -181 302 -398 l305 -395 -6 -190 c-3 -104 -9 -351 -12 -548
l-7 -358 28 7 c16 4 126 33 244 65 237 63 236 64 -24 49 -87 -5 -160 -8 -161
-7 -2 1 4 191 11 422 8 231 15 455 15 498 l0 77 48 -1 c26 0 92 -6 147 -12
l100 -12 12 -285 c6 -157 12 -343 14 -415 2 -111 4 -97 10 100 3 127 7 321 8
432 l1 201 30 7 c24 5 75 63 271 306 l241 300 200 -252 200 -252 -7 -576 c-4
-317 -9 -578 -10 -581 -2 -3 -101 -2 -222 1 -120 4 -303 9 -408 12 l-190 6
390 -55 c515 -71 525 -72 525 -48 0 10 -16 282 -35 604 -19 322 -35 595 -35
608 0 20 5 22 48 23 99 1 107 -14 -188 339 -150 179 -278 331 -285 338 -10 11
-62 -62 -270 -375z"/>
<path d="M2226 1507 l-119 -20 6 -170 c4 -94 9 -172 11 -175 5 -4 227 25 232
31 3 3 24 289 24 326 0 37 8 36 -154 8z"/>
<path d="M320 1337 l0 -175 33 -5 c17 -3 54 -9 81 -13 l49 -7 -6 123 c-4 68
-7 147 -7 176 l0 52 -42 7 c-24 3 -58 9 -75 12 l-33 5 0 -175z"/>
<path d="M523 1308 c4 -94 9 -173 11 -175 7 -7 225 -38 230 -33 6 7 30 339 25
344 -4 5 -231 36 -258 36 -12 0 -13 -25 -8 -172z"/>
<path d="M1973 1467 l-63 -10 0 -175 0 -174 58 7 c31 3 68 9 81 12 l24 6 -6
126 c-4 69 -7 147 -7 174 0 32 -4 47 -12 46 -7 -1 -41 -6 -75 -12z"/>
<path d="M327 933 c3 -93 6 -169 7 -170 0 0 37 -3 81 -4 l80 -4 -3 145 c-2 80
-5 152 -8 161 -3 10 -26 20 -68 27 -105 20 -96 35 -89 -155z"/>
<path d="M2230 1086 l-105 -11 4 -150 c2 -82 5 -152 7 -154 3 -3 47 5 98 18
l94 22 6 47 c12 104 18 242 10 241 -5 -1 -56 -7 -114 -13z"/>
<path d="M2010 1063 c-19 -2 -49 -6 -66 -8 l-32 -6 5 -167 c3 -92 6 -168 7
-169 1 -1 38 7 83 19 l81 20 -5 146 c-5 162 -7 173 -25 170 -7 0 -29 -3 -48
-5z"/>
<path d="M534 1008 c3 -29 6 -99 6 -155 l0 -102 99 -3 100 -3 6 60 c3 33 7 96
8 140 l2 79 -90 17 c-142 28 -139 29 -131 -33z"/>
</g>
</svg>
