<svg width="89" height="89" viewBox="0 0 89 89" fill="none" xmlns="http://www.w3.org/2000/svg">
<path d="M58.7589 71.541L56.4739 75.2161V75.3151H60.2517V71.541C60.2517 70.5471 60.3507 69.4541 60.3507 68.3611H60.2517C59.7529 69.4541 59.3568 70.4481 58.7626 71.541H58.7589ZM85.5847 42.3276H82.6028V40.3397H84.7888L83.3987 38.9496L84.7888 37.5596L86.8757 39.6465L85.5847 40.9375V42.3276ZM79.621 42.3276H76.6428V40.3397H79.6246L79.621 42.3276ZM73.6572 42.3276H70.679V40.3397H73.6609L73.6572 42.3276ZM67.6972 42.3276H64.73V40.3397H67.7119L67.6972 42.3276ZM61.7335 42.3276H58.7589V40.3397H61.7408L61.7335 42.3276ZM55.7734 42.3276H52.7989V40.3397H55.7807L55.7734 42.3276ZM49.8097 42.3276H46.8315V40.3397H49.8134L49.8097 42.3276ZM43.846 42.3276H40.8751V40.3397H43.857L43.846 42.3276ZM37.8859 42.3276H34.9151V40.3397H37.8969L37.8859 42.3276ZM31.9222 42.3276H28.9513V40.3397H31.9332L31.9222 42.3276ZM25.9622 42.3276H22.9913V40.3397H25.9732L25.9622 42.3276ZM19.9984 42.3276H17.0312V40.3397H20.0094L19.9984 42.3276ZM14.0347 42.3276H11.0675V40.3397H14.0494L14.0347 42.3276ZM8.07466 42.3276H5.10747V40.8385L3.91546 42.0305L2.52539 40.6441L4.61233 38.5572L6.00239 39.9473L5.60628 40.3434H8.10033L8.07466 42.3276ZM8.18836 37.8567L6.79829 36.4666L8.88522 34.3797L10.2753 35.7697L8.18836 37.8567ZM81.2128 36.8627L79.1258 34.7758L80.5159 33.3857L82.6028 35.4726L81.2128 36.8627ZM12.3622 33.6864L10.9722 32.2817L13.0591 30.1948L14.4492 31.5848L12.3622 33.6864ZM77.0536 32.6925L74.9666 30.6056L76.3567 29.2155L78.4436 31.3024L77.0536 32.6925ZM16.6315 29.5126L15.2414 28.1225L17.3283 26.0356L18.7184 27.4256L16.6315 29.5126ZM72.766 28.5186L70.679 26.4317L72.0654 25.0453L74.1524 27.1322L72.766 28.5186ZM20.9044 25.3387L19.5143 23.9486L21.5976 21.8617L22.9876 23.2518L20.9044 25.3387ZM68.4931 24.3594L66.4061 22.2725L67.7962 20.8824L69.8831 22.9694L68.4931 24.3594ZM25.1773 21.1685L23.7872 19.7784L25.8741 17.6915L27.2642 19.0816L25.1773 21.1685ZM64.2239 20.1709L62.1369 18.084L63.527 16.6939L65.6103 18.7845L64.2239 20.1709ZM29.4502 16.9946L28.0528 15.6046L30.1397 13.5176L31.5298 14.9077L29.4502 16.9946ZM59.9656 16.0007L57.864 13.9137L59.2541 12.5237L61.341 14.6106L59.9656 16.0007ZM33.7231 12.8208L32.333 11.4307L34.4199 9.34376L35.81 10.7338L33.7231 12.8208ZM55.6781 11.8268L53.5801 9.73988L54.9702 8.34981L57.0571 10.4367L55.6781 11.8268ZM37.9923 8.65056L36.6022 7.2605L38.6892 5.17356L40.0792 6.56363L37.9923 8.65056ZM51.4895 7.65661L49.4172 5.58068L50.8073 4.19061L52.8942 6.27755L51.4895 7.65661ZM42.1662 4.47669L40.7761 3.08663L42.9621 0.999691L44.3521 2.38976L42.1662 4.47669ZM47.235 3.48274L45.148 1.3958L46.4391 0.0057373L48.526 2.09267L47.235 3.48274ZM37.2001 50.0775C35.5092 50.0775 34.5189 51.6693 34.5189 53.7526C34.5189 55.9385 35.5129 57.4276 37.2001 57.4276C38.8872 57.4276 39.7821 55.8358 39.7821 53.7526C39.7858 51.7647 38.8909 50.0775 37.2001 50.0775ZM26.4683 50.0775C26.0945 50.0391 25.7167 50.0752 25.357 50.1839L25.3753 50.1802V53.1621H26.3693C27.5613 53.1621 28.3572 52.5752 28.3572 51.5703C28.2581 50.5763 27.5613 50.0775 26.4683 50.0775ZM48.8231 50.0775C47.1323 50.0775 46.142 51.6693 46.142 53.7526C46.142 55.9385 47.1359 57.4276 48.8231 57.4276C50.5102 57.4276 51.4052 55.8358 51.4052 53.7526C51.5042 51.7647 50.5139 50.0775 48.8231 50.0775Z" fill="#7E7E7E"/>
<path d="M83.7239 38.7515H5.68576C2.96797 38.7515 0.763672 40.9558 0.763672 43.6736V43.7249V43.7212V83.1089C0.763672 85.8267 2.96797 88.031 5.68576 88.031H83.7716C86.4894 88.031 88.6937 85.8267 88.6937 83.1089V83.0576V83.0612V43.7212C88.6879 42.4059 88.1628 41.1461 87.2328 40.2161C86.3027 39.286 85.0429 38.7609 83.7276 38.7551L83.7239 38.7515ZM6.03419 82.6651H3.7492V45.0123H6.03419V82.6651ZM22.4253 48.4856C23.4119 48.3609 24.5525 48.2875 25.7079 48.2875C26.9742 48.1418 28.2507 48.4583 29.3022 49.1788L29.2839 49.1678C29.6262 49.4387 29.8961 49.7902 30.0696 50.1908C30.243 50.5914 30.3146 51.0288 30.2778 51.4638V51.4528C30.2745 52.0352 30.0942 52.6028 29.7607 53.0804C29.4273 53.5579 28.9566 53.9228 28.411 54.1266L28.3926 54.1339C29.1885 54.4273 29.5847 55.1279 29.8817 56.2208C30.1531 57.4532 30.4576 58.4838 30.8207 59.4851L30.762 59.3017H28.1799C27.8548 58.5015 27.596 57.6759 27.406 56.8333L27.384 56.7196C27.0906 55.3296 26.5881 55.0288 25.5978 54.9335H24.8093V59.2064H22.3262V48.4856H22.4253ZM35.8381 82.2653H23.808V79.8813L25.9939 77.8934C29.669 74.6145 31.4589 72.6266 31.5689 70.6387C31.5689 69.2486 30.773 68.1556 28.7888 68.1556C27.441 68.2058 26.1482 68.7025 25.1137 69.5677L25.1247 69.5604L24.0317 66.6775C25.6197 65.5131 27.5385 64.8872 29.5076 64.8913H29.6103C30.3552 64.7943 31.1086 64.8573 31.8273 65.0761C32.5459 65.2949 33.2096 65.6645 33.774 66.1602C34.3385 66.6559 34.7906 67.2663 35.1004 67.9507C35.4102 68.6351 35.5704 69.3776 35.5704 70.1288V70.2609V70.2535C35.3738 71.7149 34.8783 73.1201 34.1148 74.3815C33.3512 75.6429 32.336 76.7335 31.1324 77.5853L31.0994 77.6073L29.5076 78.8984V78.9974H35.8675L35.8381 82.2653ZM31.4662 53.8515C31.4064 53.1177 31.4993 52.3794 31.7391 51.6833C31.9788 50.9872 32.3602 50.3483 32.8592 49.8069C33.3582 49.2655 33.9639 48.8334 34.6382 48.5378C35.3126 48.2423 36.0408 48.0896 36.7771 48.0895H36.8321H36.8284H36.9604C37.6702 48.0896 38.372 48.239 39.0203 48.528C39.6686 48.817 40.2488 49.2391 40.7234 49.7669C41.1979 50.2947 41.5562 50.9164 41.7748 51.5917C41.9935 52.267 42.0677 52.9806 41.9926 53.6864L41.9962 53.6644C42.0717 54.3922 41.9935 55.1278 41.7668 55.8235C41.54 56.5191 41.1696 57.1594 40.6797 57.7029C40.1898 58.2464 39.5913 58.681 38.9228 58.9785C38.2543 59.276 37.5308 59.4299 36.7991 59.4301L36.623 59.4264H36.6303H36.5056C35.7956 59.4268 35.0933 59.2778 34.4446 58.989C33.7959 58.7003 33.2152 58.2782 32.7403 57.7504C32.2653 57.2225 31.9068 56.6006 31.6879 55.9251C31.469 55.2496 31.3947 54.5356 31.4699 53.8295V53.8515H31.4662ZM43.2873 82.5661L43.0855 82.5698C41.3067 82.5698 39.6306 82.1296 38.1635 81.3484L38.2221 81.3778L39.018 78.3959C40.2304 79.0756 41.5898 79.4507 42.9792 79.4889H42.9902C45.0771 79.4889 46.0711 78.4949 46.0711 77.2039C46.0711 75.5131 44.3802 74.8199 42.6931 74.8199H41.1013V71.937H42.6931C43.9841 71.937 45.675 71.4419 45.675 69.9491C45.675 68.9552 44.8791 68.1629 43.1882 68.1629C41.9194 68.211 40.6801 68.5592 39.5719 69.1789L39.6122 69.1569L38.8163 66.2741C40.4257 65.3691 42.2524 64.9226 44.0978 64.983H44.0832C47.7582 64.983 49.7461 66.8682 49.7461 69.2559C49.7395 70.1592 49.4378 71.0355 48.8868 71.7513C48.3359 72.4671 47.5661 72.9831 46.6946 73.2207L46.6652 73.2281V73.3271C48.7558 73.5875 50.355 75.3517 50.355 77.49V77.501C50.2449 80.3838 47.5602 82.5698 43.2909 82.5698L43.2873 82.5661ZM48.2534 59.4154H48.18C47.468 59.4155 46.7639 59.2669 46.1126 58.9791C45.4614 58.6913 44.8775 58.2706 44.3982 57.7441C43.919 57.2175 43.555 56.5967 43.3296 55.9213C43.1042 55.246 43.0223 54.531 43.0892 53.8221V53.8441C43.0294 53.1103 43.1223 52.3721 43.3621 51.676C43.6018 50.9798 43.9832 50.3409 44.4822 49.7996C44.9812 49.2582 45.587 48.8261 46.2613 48.5305C46.9356 48.2349 47.6638 48.0823 48.4001 48.0822H48.4551H48.5835C49.2932 48.0823 49.995 48.2317 50.6433 48.5207C51.2916 48.8097 51.8719 49.2318 52.3464 49.7596C52.8209 50.2874 53.1792 50.9091 53.3978 51.5844C53.6165 52.2596 53.6907 52.9733 53.6156 53.6791L53.6192 53.6571C53.6947 54.3849 53.6166 55.1204 53.3898 55.8161C53.163 56.5118 52.7927 57.1521 52.3028 57.6956C51.8128 58.2391 51.2143 58.6737 50.5458 58.9712C49.8773 59.2687 49.1538 59.4226 48.4221 59.4228L48.2534 59.4154ZM65.642 78.1942H63.5588V82.2653H59.781V78.1905H52.2328V75.6084L58.688 65.2764H63.5588V75.2123H65.6457L65.642 78.1942ZM64.6481 59.3201L64.439 55.1462C64.439 53.8552 64.34 52.2634 64.34 50.6752C64.0466 52.0653 63.5441 53.6571 63.148 54.9481L61.857 59.221H59.9717L58.7797 54.9481C58.3836 53.6571 58.0829 52.0653 57.7858 50.6752C57.6868 52.1643 57.6868 53.8552 57.5877 55.2452L57.4007 59.4191H55.1157L55.8125 48.4893H59.0915L60.1845 52.1643C60.4779 53.4554 60.8813 54.7464 61.0647 56.0411C61.3581 54.7501 61.7616 53.36 62.0587 52.069L63.2507 48.3939H66.5296L67.1165 59.3237L64.6481 59.3201ZM85.7082 82.2727H83.4232V44.7152H85.7082V82.2727Z" fill="#7E7E7E"/>
</svg>
